<svg id="visual" viewBox="0 0 900 600" width="900" height="600" xmlns="http://www.w3.org/2000/svg" xmlns:xlink="http://www.w3.org/1999/xlink" version="1.1"><path d="M0 515L25 507.3C50 499.7 100 484.3 150 476.7C200 469 250 469 300 484.2C350 499.3 400 529.7 450 540.8C500 552 550 544 600 529C650 514 700 492 750 475.8C800 459.7 850 449.3 875 444.2L900 439L900 601L875 601C850 601 800 601 750 601C700 601 650 601 600 601C550 601 500 601 450 601C400 601 350 601 300 601C250 601 200 601 150 601C100 601 50 601 25 601L0 601Z" fill="#305a4c" stroke-linecap="round" stroke-linejoin="miter"></path></svg>